<svg xmlns="http://www.w3.org/2000/svg" width="87.188" height="101.508" viewBox="0 0 87.188 101.508">
  <g id="Group_1890" data-name="Group 1890" transform="translate(-1097.273 -3516.5)">
    <path id="Subtraction_1" data-name="Subtraction 1" d="M64.543,98.846H10a10.011,10.011,0,0,1-10-10V10A10.011,10.011,0,0,1,10,0H53.264L74.543,21.163V88.846A10.011,10.011,0,0,1,64.543,98.846Z" transform="translate(1097.273 3516.5)" fill="#b7b7b7"/>
    <rect id="Rectangle_207" data-name="Rectangle 207" width="23.96" height="9.318" rx="3" transform="translate(1106.591 3559.476)" fill="#fff"/>
    <rect id="Rectangle_209" data-name="Rectangle 209" width="23.96" height="9.318" rx="3" transform="translate(1106.591 3576.111)" fill="#fff"/>
    <rect id="Rectangle_211" data-name="Rectangle 211" width="23.96" height="9.318" rx="3" transform="translate(1106.591 3592.748)" fill="#fff"/>
    <rect id="Rectangle_208" data-name="Rectangle 208" width="24.626" height="9.318" rx="3" transform="translate(1137.872 3559.476)" fill="#fff"/>
    <rect id="Rectangle_210" data-name="Rectangle 210" width="24.626" height="9.318" rx="3" transform="translate(1137.872 3576.111)" fill="#fff"/>
    <rect id="Rectangle_212" data-name="Rectangle 212" width="24.626" height="9.318" rx="3" transform="translate(1137.872 3592.748)" fill="#fff"/>
    <circle id="Ellipse_4" data-name="Ellipse 4" cx="16.306" cy="16.306" r="16.306" transform="translate(1151.849 3585.396)" fill="#5d5d5d"/>
    <g id="Group_1885" data-name="Group 1885" transform="translate(1159.835 3593.383)">
      <line id="Line_2" data-name="Line 2" x2="17.25" transform="translate(0 8.539)" fill="none" stroke="#fff" stroke-width="3"/>
      <line id="Line_3" data-name="Line 3" y2="17.25" transform="translate(8.711)" fill="none" stroke="#fff" stroke-width="3"/>
    </g>
  </g>
</svg>
